<svg width="239" height="18" viewBox="0 0 239 18" fill="none" xmlns="http://www.w3.org/2000/svg">
<path d="M0.784 17L8.272 0.199999H12.112L19.624 17H15.544L9.4 2.168H10.936L4.768 17H0.784ZM4.528 13.4L5.56 10.448H14.2L15.256 13.4H4.528ZM26.6929 17L19.4449 0.199999H23.6449L29.9809 15.08H27.5089L33.9409 0.199999H37.8049L30.5329 17H26.6929ZM43.9836 6.968H52.0716V9.992H43.9836V6.968ZM44.2716 13.88H53.4156V17H40.4076V0.199999H53.1036V3.32H44.2716V13.88ZM57.7092 17V0.199999H60.9252L70.8372 12.296H69.2772V0.199999H73.1172V17H69.9252L59.9892 4.904H61.5492V17H57.7092ZM85.756 17.288C83.372 17.288 81.508 16.624 80.164 15.296C78.82 13.968 78.148 12.072 78.148 9.608V0.199999H82.036V9.464C82.036 11.064 82.364 12.216 83.02 12.92C83.676 13.624 84.596 13.976 85.78 13.976C86.964 13.976 87.884 13.624 88.54 12.92C89.196 12.216 89.524 11.064 89.524 9.464V0.199999H93.364V9.608C93.364 12.072 92.692 13.968 91.348 15.296C90.004 16.624 88.14 17.288 85.756 17.288ZM101.982 6.968H110.07V9.992H101.982V6.968ZM102.27 13.88H111.414V17H98.4061V0.199999H111.102V3.32H102.27V13.88ZM125.517 8.336H134.397V9.872H125.517V8.336ZM125.709 17H123.933V0.199999H135.453V1.736H125.709V17ZM136.836 17L144.516 0.199999H146.268L153.948 17H152.076L145.02 1.232H145.74L138.684 17H136.836ZM139.86 12.512L140.388 11.072H150.156L150.684 12.512H139.86ZM162.559 17.144C161.311 17.144 160.111 16.944 158.959 16.544C157.823 16.128 156.943 15.6 156.319 14.96L157.015 13.592C157.607 14.168 158.399 14.656 159.391 15.056C160.399 15.44 161.455 15.632 162.559 15.632C163.615 15.632 164.471 15.504 165.127 15.248C165.799 14.976 166.287 14.616 166.591 14.168C166.911 13.72 167.071 13.224 167.071 12.68C167.071 12.024 166.879 11.496 166.495 11.096C166.127 10.696 165.639 10.384 165.031 10.16C164.423 9.92 163.751 9.712 163.015 9.536C162.279 9.36 161.543 9.176 160.807 8.984C160.071 8.776 159.391 8.504 158.767 8.168C158.159 7.832 157.663 7.392 157.279 6.848C156.911 6.288 156.727 5.56 156.727 4.664C156.727 3.832 156.943 3.072 157.375 2.384C157.823 1.68 158.503 1.12 159.415 0.704C160.327 0.271999 161.495 0.0559993 162.919 0.0559993C163.863 0.0559993 164.799 0.191999 165.727 0.464C166.655 0.719999 167.455 1.08 168.127 1.544L167.527 2.96C166.807 2.48 166.039 2.128 165.223 1.904C164.423 1.68 163.647 1.568 162.895 1.568C161.887 1.568 161.055 1.704 160.399 1.976C159.743 2.248 159.255 2.616 158.935 3.08C158.631 3.528 158.479 4.04 158.479 4.616C158.479 5.272 158.663 5.8 159.031 6.2C159.415 6.6 159.911 6.912 160.519 7.136C161.143 7.36 161.823 7.56 162.559 7.736C163.295 7.912 164.023 8.104 164.743 8.312C165.479 8.52 166.151 8.792 166.759 9.128C167.383 9.448 167.879 9.88 168.247 10.424C168.631 10.968 168.823 11.68 168.823 12.56C168.823 13.376 168.599 14.136 168.151 14.84C167.703 15.528 167.015 16.088 166.087 16.52C165.175 16.936 163.999 17.144 162.559 17.144ZM186.18 0.199999H187.932V17H186.18V0.199999ZM175.668 17H173.892V0.199999H175.668V17ZM186.348 9.248H175.476V7.688H186.348V9.248ZM194.616 17V0.199999H196.392V17H194.616ZM210.402 17.144C209.138 17.144 207.962 16.936 206.874 16.52C205.802 16.088 204.866 15.488 204.066 14.72C203.282 13.936 202.666 13.032 202.218 12.008C201.786 10.968 201.57 9.832 201.57 8.6C201.57 7.368 201.786 6.24 202.218 5.216C202.666 4.176 203.282 3.272 204.066 2.504C204.866 1.72 205.802 1.12 206.874 0.704C207.946 0.271999 209.122 0.0559993 210.402 0.0559993C211.666 0.0559993 212.834 0.271999 213.906 0.704C214.978 1.12 215.906 1.712 216.69 2.48C217.49 3.248 218.106 4.152 218.538 5.192C218.986 6.232 219.21 7.368 219.21 8.6C219.21 9.832 218.986 10.968 218.538 12.008C218.106 13.048 217.49 13.952 216.69 14.72C215.906 15.488 214.978 16.088 213.906 16.52C212.834 16.936 211.666 17.144 210.402 17.144ZM210.402 15.56C211.41 15.56 212.338 15.392 213.186 15.056C214.05 14.704 214.794 14.216 215.418 13.592C216.058 12.952 216.554 12.216 216.906 11.384C217.258 10.536 217.434 9.608 217.434 8.6C217.434 7.592 217.258 6.672 216.906 5.84C216.554 4.992 216.058 4.256 215.418 3.632C214.794 2.992 214.05 2.504 213.186 2.168C212.338 1.816 211.41 1.64 210.402 1.64C209.394 1.64 208.458 1.816 207.594 2.168C206.73 2.504 205.978 2.992 205.338 3.632C204.714 4.256 204.218 4.992 203.85 5.84C203.498 6.672 203.322 7.592 203.322 8.6C203.322 9.592 203.498 10.512 203.85 11.36C204.218 12.208 204.714 12.952 205.338 13.592C205.978 14.216 206.73 14.704 207.594 15.056C208.458 15.392 209.394 15.56 210.402 15.56ZM224.391 17V0.199999H225.855L237.447 14.792H236.679V0.199999H238.431V17H236.967L225.399 2.408H226.167V17H224.391Z" fill="#222222"/>
</svg>
