<?xml version="1.0" encoding="UTF-8" standalone="no" ?>
<!DOCTYPE svg PUBLIC "-//W3C//DTD SVG 1.1//EN" "http://www.w3.org/Graphics/SVG/1.1/DTD/svg11.dtd">
<svg xmlns="http://www.w3.org/2000/svg" xmlns:xlink="http://www.w3.org/1999/xlink" version="1.1" width="400" height="400" viewBox="0 0 400 400" xml:space="preserve">
<desc>Created with Fabric.js 3.6.2</desc>
<defs>
</defs>
<g transform="matrix(0.63 0 0 0.63 200 200)" id="XMLID_22_"  >
<path style="stroke: none; stroke-width: 1; stroke-dasharray: none; stroke-linecap: butt; stroke-dashoffset: 0; stroke-linejoin: miter; stroke-miterlimit: 4; fill: rgb(255,255,255); fill-rule: nonzero; opacity: 1;"  transform=" translate(-256.05, -332.45)" d="M 196.9 462 c 120.3 0 186.1 -99.7 186.1 -186.1 c 0 -2.8 0 -5.6 -0.2 -8.5 c 12.8 -9.3 23.8 -20.7 32.6 -33.9 c -11.9 5.3 -24.6 8.8 -37.6 10.3 c 13.7 -8.2 23.9 -21 28.8 -36.2 c -12.8 7.6 -26.9 13 -41.5 15.9 c -24.8 -26.3 -66.2 -27.6 -92.5 -2.8 c -17 16 -24.2 39.8 -18.9 62.5 c -52.6 -2.6 -101.6 -27.5 -134.8 -68.3 c -17.4 29.9 -8.5 68.1 20.2 87.3 c -10.4 -0.3 -20.6 -3.1 -29.7 -8.2 c 0 0.3 0 0.5 0 0.8 c 0 31.1 22 57.9 52.5 64.1 c -9.6 2.6 -19.7 3 -29.5 1.1 c 8.6 26.6 33.1 44.9 61.1 45.4 c -23.2 18.2 -51.8 28.1 -81.2 28.1 c -5.2 0 -10.4 -0.3 -15.6 -0.9 C 126.5 451.8 161.3 462 196.9 462" stroke-linecap="round" />
</g>
</svg>