<?xml version="1.0" encoding="UTF-8" standalone="no" ?>
<!DOCTYPE svg PUBLIC "-//W3C//DTD SVG 1.1//EN" "http://www.w3.org/Graphics/SVG/1.1/DTD/svg11.dtd">
<svg xmlns="http://www.w3.org/2000/svg" xmlns:xlink="http://www.w3.org/1999/xlink" version="1.1" width="400" height="400" viewBox="0 0 400 400" xml:space="preserve">
<desc>Created with Fabric.js 3.6.2</desc>
<defs>
</defs>
<g transform="matrix(0.16 0 0 0.16 200 200)"  >
<path style="stroke: none; stroke-width: 1; stroke-dasharray: none; stroke-linecap: butt; stroke-dashoffset: 0; stroke-linejoin: miter; stroke-miterlimit: 4; fill: rgb(255,255,255); fill-rule: nonzero; opacity: 1;"  transform=" translate(-896, -832)" d="M 256 597 q 0 -108 37.5 -203.5 t 103.5 -166.5 t 152 -123 t 185 -78 t 202 -26 q 158 0 294 66.5 t 221 193.5 t 85 287 q 0 96 -19 188 t -60 177 t -100 149.5 t -145 103 t -189 38.5 q -68 0 -135 -32 t -96 -88 q -10 39 -28 112.5 t -23.5 95 t -20.5 71 t -26 71 t -32 62.5 t -46 77.5 t -62 86.5 l -14 5 l -9 -10 q -15 -157 -15 -188 q 0 -92 21.5 -206.5 t 66.5 -287.5 t 52 -203 q -32 -65 -32 -169 q 0 -83 52 -156 t 132 -73 q 61 0 95 40.5 t 34 102.5 q 0 66 -44 191 t -44 187 q 0 63 45 104.5 t 109 41.5 q 55 0 102 -25 t 78.5 -68 t 56 -95 t 38 -110.5 t 20 -111 t 6.5 -99.5 q 0 -173 -109.5 -269.5 t -285.5 -96.5 q -200 0 -334 129.5 t -134 328.5 q 0 44 12.5 85 t 27 65 t 27 45.5 t 12.5 30.5 q 0 28 -15 73 t -37 45 q -2 0 -17 -3 q -51 -15 -90.5 -56 t -61 -94.5 t -32.5 -108 t -11 -106.5 z" stroke-linecap="round" />
</g>
</svg>